<svg xmlns="http://www.w3.org/2000/svg" viewBox="0 0 750 260" width="750" height="260" font-family="'Pretendard','Malgun Gothic','Apple SD Gothic Neo',sans-serif">
  <defs>
    <linearGradient id="bgi" x1="0" y1="0" x2="1" y2="1">
      <stop offset="0" stop-color="#FFFFFF"/>
      <stop offset="1" stop-color="#FBF3F2"/>
    </linearGradient>
  </defs>
  <rect width="750" height="260" fill="url(#bgi)"/>
  <!-- 우측 장식: 와이파이 + 공유기 -->
  <g transform="translate(566,60)" opacity="0.9" fill="none" stroke="#DE4F41" stroke-width="7" stroke-linecap="round">
    <path d="M0 70 a60 60 0 0 1 120 0" opacity="0.35"/>
    <path d="M22 80 a38 38 0 0 1 76 0" opacity="0.6"/>
    <path d="M44 90 a16 16 0 0 1 32 0"/>
  </g>
  <g transform="translate(566,150)">
    <rect x="6" y="0" width="108" height="44" rx="10" fill="#FFFFFF" stroke="#E8E8E8" stroke-width="2"/>
    <circle cx="30" cy="22" r="5" fill="#DE4F41"/>
    <rect x="48" y="18" width="52" height="8" rx="4" fill="#F0CFC9"/>
  </g>
  <!-- 좌측 텍스트 -->
  <g transform="translate(48,46)">
    <rect x="0" y="0" width="120" height="30" rx="15" fill="#DE4F41"/>
    <text x="60" y="20" text-anchor="middle" fill="#FFFFFF" font-size="15" font-weight="700">결합 특가</text>
    <text x="2" y="84" fill="#222222" font-size="38" font-weight="800">인터넷 + IPTV</text>
    <text x="2" y="122" fill="#555555" font-size="19" font-weight="500">현금 사은품 <tspan fill="#DE4F41" font-weight="800">최대 35만원</tspan> 지급</text>
    <g transform="translate(2,142)">
      <rect x="0" y="0" width="168" height="40" rx="20" fill="#222222"/>
      <text x="84" y="26" text-anchor="middle" fill="#FFFFFF" font-size="16" font-weight="700">결합 견적 받기 →</text>
    </g>
  </g>
</svg>
