<svg xmlns="http://www.w3.org/2000/svg" viewBox="0 0 1000 400" width="1000" height="400">
  <defs>
    <linearGradient id="ibg" x1="0" y1="0" x2="1" y2="1">
      <stop offset="0" stop-color="#F1F6FD"/>
      <stop offset="1" stop-color="#DAE8FA"/>
    </linearGradient>
  </defs>
  <rect width="1000" height="400" fill="url(#ibg)"/>
  <circle cx="790" cy="200" r="240" fill="#FFFFFF" opacity="0.30"/>
  <circle cx="845" cy="200" r="165" fill="#FFFFFF" opacity="0.40"/>
  <circle cx="650" cy="312" r="26" fill="#86B2EE" opacity="0.55"/>
  <circle cx="950" cy="250" r="16" fill="#6FA6E9" opacity="0.5"/>
  <g transform="translate(740,96)" fill="none" stroke="#5E9BE8" stroke-width="9" stroke-linecap="round">
    <path d="M0 86 a72 72 0 0 1 144 0" opacity="0.30"/>
    <path d="M26 98 a46 46 0 0 1 92 0" opacity="0.55"/>
    <path d="M52 110 a20 20 0 0 1 40 0" opacity="0.9"/>
  </g>
  <g transform="translate(748,214)">
    <rect x="0" y="0" width="128" height="56" rx="14" fill="#FFFFFF" stroke="#D6E4F7" stroke-width="3"/>
    <circle cx="28" cy="28" r="6" fill="#5E9BE8"/>
    <rect x="48" y="22" width="64" height="9" rx="4.5" fill="#CADEF7"/>
  </g>
</svg>
